<?xml version="1.0" encoding="UTF-8"?>
<svg version="1.1" xmlns="http://www.w3.org/2000/svg" width="16" height="16">
<path d="M0 0 C2.70313576 -0.21917317 4.43958382 -0.32851983 6.8125 1.0625 C8.60842137 3.99268751 8.18977574 6.6472953 8 10 C7.01 10 6.02 10 5 10 C5 10.66 5 11.32 5 12 C4.01 12 3.02 12 2 12 C2 12.66 2 13.32 2 14 C-0.33294775 14.04241723 -2.66702567 14.04092937 -5 14 C-6 13 -6 13 -6.09765625 10.93359375 C-6.08605469 10.10988281 -6.07445312 9.28617188 -6.0625 8.4375 C-6.05347656 7.61121094 -6.04445313 6.78492188 -6.03515625 5.93359375 C-6.02355469 5.29550781 -6.01195312 4.65742187 -6 4 C-5.01 4 -4.02 4 -3 4 C-3 3.34 -3 2.68 -3 2 C-2.01 2 -1.02 2 0 2 C0 1.34 0 0.68 0 0 Z " fill="#6EA0E4" transform="translate(7,1)"/>
<path d="M0 0 C2.70313576 -0.21917317 4.43958382 -0.32851983 6.8125 1.0625 C8.60842137 3.99268751 8.18977574 6.6472953 8 10 C7.01 10 6.02 10 5 10 C4.731875 9.05125 4.46375 8.1025 4.1875 7.125 C3.25013412 3.74732727 3.25013412 3.74732727 0 2 C0 1.34 0 0.68 0 0 Z " fill="#EBB92A" transform="translate(7,1)"/>
<path d="M0 0 C2.70313576 -0.21917317 4.43958382 -0.32851983 6.8125 1.0625 C8.60842137 3.99268751 8.18977574 6.6472953 8 10 C7.01 10 6.02 10 5 10 C4.731875 8.865625 4.46375 7.73125 4.1875 6.5625 C3.795625 5.386875 3.40375 4.21125 3 3 C2.01 2.67 1.02 2.34 0 2 C0 1.34 0 0.68 0 0 Z " fill="#35A257" transform="translate(4,3)"/>
<path d="M0 0 C0 2.64 0 5.28 0 8 C-2.31 8 -4.62 8 -7 8 C-7 6.02 -7 4.04 -7 2 C-6.67 2.99 -6.34 3.98 -6 5 C-5.01 4.67 -4.02 4.34 -3 4 C-3 3.01 -3 2.02 -3 1 C-1 0 -1 0 0 0 Z " fill="#4888E9" transform="translate(9,7)"/>
<path d="M0 0 C2.375 -0.1875 2.375 -0.1875 5 0 C5.66 0.99 6.32 1.98 7 3 C6.34 3 5.68 3 5 3 C4.67 3.66 4.34 4.32 4 5 C2 3.625 2 3.625 0 2 C0 1.34 0 0.68 0 0 Z " fill="#ECC239" transform="translate(7,1)"/>
<path d="M0 0 C2.375 -0.1875 2.375 -0.1875 5 0 C5.66 0.99 6.32 1.98 7 3 C3 3 3 3 0 2 C0 1.34 0 0.68 0 0 Z " fill="#32A86B" transform="translate(4,3)"/>
</svg>
